<svg width="11" height="11" viewBox="0 0 11 11" fill="none" xmlns="http://www.w3.org/2000/svg">
<path d="M8.25 2.75H8.255M3 0.5H8C9.38071 0.5 10.5 1.61929 10.5 3V8C10.5 9.38071 9.38071 10.5 8 10.5H3C1.61929 10.5 0.5 9.38071 0.5 8V3C0.5 1.61929 1.61929 0.5 3 0.5ZM7.5 5.185C7.56171 5.60112 7.49063 6.02611 7.29688 6.39951C7.10313 6.77291 6.79657 7.07571 6.42081 7.26484C6.04505 7.45397 5.61922 7.5198 5.20389 7.45297C4.78856 7.38613 4.40488 7.19004 4.10742 6.89258C3.80996 6.59512 3.61387 6.21144 3.54703 5.79611C3.4802 5.38078 3.54603 4.95495 3.73516 4.57919C3.92429 4.20343 4.22709 3.89687 4.60049 3.70312C4.97389 3.50937 5.39888 3.43829 5.815 3.5C6.23946 3.56294 6.63243 3.76073 6.93585 4.06415C7.23927 4.36758 7.43706 4.76054 7.5 5.185Z" stroke="#1E1E1E" stroke-linecap="round" stroke-linejoin="round"/>
</svg>
