<svg width="12" height="9" viewBox="0 0 12 9" fill="none" xmlns="http://www.w3.org/2000/svg">
<path d="M11.27 1.71C11.2106 1.47271 11.0897 1.25529 10.9194 1.0797C10.7491 0.90412 10.5354 0.776592 10.3 0.71C9.44004 0.5 6.00004 0.5 6.00004 0.5C6.00004 0.5 2.56004 0.5 1.70004 0.73C1.46467 0.796592 1.25103 0.92412 1.08072 1.0997C0.9104 1.27529 0.789436 1.49271 0.730042 1.73C0.572649 2.60278 0.49566 3.48816 0.500042 4.375C0.494431 5.26852 0.571426 6.16065 0.730042 7.04C0.795521 7.26992 0.919195 7.47907 1.08911 7.64724C1.25903 7.81541 1.46945 7.93691 1.70004 8C2.56004 8.23 6.00004 8.23 6.00004 8.23C6.00004 8.23 9.44004 8.23 10.3 8C10.5354 7.93341 10.7491 7.80588 10.9194 7.6303C11.0897 7.45471 11.2106 7.2373 11.27 7C11.4262 6.13379 11.5032 5.25517 11.5 4.375C11.5057 3.48148 11.4287 2.58935 11.27 1.71Z" stroke="#1E1E1E" stroke-linecap="round" stroke-linejoin="round"/>
<path d="M4.87504 6.01L7.75004 4.375L4.87504 2.74V6.01Z" stroke="#1E1E1E" stroke-linecap="round" stroke-linejoin="round"/>
</svg>
